<svg xmlns="http://www.w3.org/2000/svg" viewBox="0 0 240 240" width="240" height="240">
  
  <rect x="14" y="26" width="212" height="196" rx="12" fill="#f2ede4" stroke="#1c2b3a" stroke-width="7"></rect>
  
  <path d="M14 38 Q14 26 26 26 L214 26 Q226 26 226 38 L226 74 L14 74 Z" fill="#0969da"></path>
  <rect x="14" y="26" width="212" height="48" rx="12" fill="none" stroke="#1c2b3a" stroke-width="7"></rect>
  <line x1="14" y1="74" x2="226" y2="74" stroke="#1c2b3a" stroke-width="5"></line>
  
  <circle cx="42" cy="50" r="8" fill="#f2ede4" stroke="#1c2b3a" stroke-width="4"></circle>
  <circle cx="68" cy="50" r="8" fill="#f2ede4" stroke="#1c2b3a" stroke-width="4"></circle>
  <circle cx="94" cy="50" r="8" fill="#f2ede4" stroke="#1c2b3a" stroke-width="4"></circle>
  
  <rect x="28" y="88" width="54" height="46" rx="7" fill="#f2ede4" stroke="#1c2b3a" stroke-width="5"></rect>
  <rect x="94" y="88" width="54" height="46" rx="7" fill="#0969da" stroke="#1c2b3a" stroke-width="5"></rect>
  <rect x="160" y="88" width="54" height="46" rx="7" fill="#f2ede4" stroke="#1c2b3a" stroke-width="5"></rect>
  
  <rect x="28" y="148" width="54" height="46" rx="7" fill="#0969da" stroke="#1c2b3a" stroke-width="5"></rect>
  <rect x="94" y="148" width="54" height="46" rx="7" fill="#f2ede4" stroke="#1c2b3a" stroke-width="5"></rect>
  <rect x="160" y="148" width="54" height="46" rx="7" fill="#f2ede4" stroke="#1c2b3a" stroke-width="5"></rect>
</svg>