<svg xmlns="http://www.w3.org/2000/svg" viewBox="0 0 240 240" width="240" height="240">
  
  <path d="M22 52 Q22 38 36 38 L120 38 L120 198 Q84 190 50 194 Q22 196 22 180 Z" fill="#f2ede4" stroke="#1c2b3a" stroke-width="7" stroke-linejoin="round"></path>
  
  <path d="M218 52 Q218 38 204 38 L120 38 L120 198 Q156 190 190 194 Q218 196 218 180 Z" fill="#f2ede4" stroke="#1c2b3a" stroke-width="7" stroke-linejoin="round"></path>
  
  <rect x="115" y="38" width="10" height="160" fill="#1c2b3a"></rect>
  
  <line x1="44" y1="80" x2="106" y2="76" stroke="#1c2b3a" stroke-width="5" stroke-linecap="round"></line>
  <line x1="44" y1="98" x2="106" y2="94" stroke="#1c2b3a" stroke-width="5" stroke-linecap="round"></line>
  <line x1="44" y1="116" x2="106" y2="112" stroke="#1c2b3a" stroke-width="5" stroke-linecap="round"></line>
  <line x1="44" y1="134" x2="90" y2="130" stroke="#1c2b3a" stroke-width="5" stroke-linecap="round"></line>
  
  <line x1="134" y1="76" x2="196" y2="76" stroke="#1c2b3a" stroke-width="5" stroke-linecap="round"></line>
  <line x1="134" y1="94" x2="196" y2="94" stroke="#1c2b3a" stroke-width="5" stroke-linecap="round"></line>
  <line x1="134" y1="112" x2="196" y2="112" stroke="#1c2b3a" stroke-width="5" stroke-linecap="round"></line>
  <line x1="134" y1="130" x2="180" y2="130" stroke="#1c2b3a" stroke-width="5" stroke-linecap="round"></line>
  
  <path d="M172 38 L172 82 L182 72 L192 82 L192 38 Z" fill="#0969da" stroke="#1c2b3a" stroke-width="5" stroke-linejoin="round"></path>
</svg>