<svg xmlns="http://www.w3.org/2000/svg" viewBox="0 0 240 240" width="240" height="240">
  
  <line x1="120" y1="14" x2="120" y2="2" stroke="#0969da" stroke-width="6" stroke-linecap="round"></line>
  <line x1="170" y1="32" x2="178" y2="22" stroke="#0969da" stroke-width="6" stroke-linecap="round"></line>
  <line x1="196" y1="80" x2="208" y2="80" stroke="#0969da" stroke-width="6" stroke-linecap="round"></line>
  <line x1="70" y1="32" x2="62" y2="22" stroke="#0969da" stroke-width="6" stroke-linecap="round"></line>
  <line x1="44" y1="80" x2="32" y2="80" stroke="#0969da" stroke-width="6" stroke-linecap="round"></line>
  
  <path d="M66 104 C66 66 89 42 120 42 C151 42 174 66 174 104 C174 126 163 140 155 154 L85 154 C77 140 66 126 66 104 Z" fill="#f2ede4" stroke="#1c2b3a" stroke-width="7" stroke-linejoin="round"></path>
  
  <rect x="85" y="154" width="70" height="16" rx="5" fill="#f2ede4" stroke="#1c2b3a" stroke-width="6"></rect>
  <rect x="91" y="170" width="58" height="16" rx="5" fill="#f2ede4" stroke="#1c2b3a" stroke-width="6"></rect>
  <rect x="97" y="186" width="46" height="18" rx="9" fill="#f2ede4" stroke="#1c2b3a" stroke-width="6"></rect>
  
  <path d="M132 60 L106 110 L124 110 L110 150 L146 96 L128 96 Z" fill="#0969da" stroke="#1c2b3a" stroke-width="4" stroke-linejoin="round"></path>
</svg>